<svg xmlns="http://www.w3.org/2000/svg" xmlns:xlink="http://www.w3.org/1999/xlink" width="910.567" height="310.013" viewBox="0 0 910.567 310.013"><defs><clipPath id="a"><rect width="910.567" height="310.013" fill="none"/></clipPath></defs><g transform="translate(1282.835 4172)"><g transform="translate(-1282.835 -4172)" clip-path="url(#a)"><path d="M201.655,214.74H135.9V148.992h65.75Zm35.721-95.272H135.9V77.685H102.248v31.867c0,7.876-2.038,9.916-9.915,9.916H65.748v29.524h34.435v59.963c0,22.11,13.541,35.307,36.227,35.307h130.9V214.74H237.376Z" fill="#26bad4"/><path d="M219.516,107.439c19.853,0,21.994-12.65,21.994-18.089V83.841c0-5.441-2.141-18.093-21.994-18.093S197.524,78.4,197.524,83.841V89.35c0,5.439,2.141,18.089,21.992,18.089" fill="#26bad4"/><path d="M756.246,119.467V217.5l-28.332,0c-12.852,0-19.1-7.377-19.1-22.546V119.467H673.091v79.615c0,28.715,15.464,45.183,42.427,45.183h76.449v-124.8Z" fill="#26bad4"/><path d="M628.825,194.938c0,15.169-6.248,22.542-19.1,22.542l-28.333.006V146.5l28.333.006c12.853,0,19.1,7.373,19.1,22.542Zm-6.7-75.2H590.372a8.992,8.992,0,0,1-8.981-8.979V75.592H545.67V244.265h76.453c12.686,0,23.256-3.878,30.566-11.188,7.867-7.869,11.859-19.314,11.857-34.008V164.915c0-14.694-3.99-26.14-11.857-34.008-7.31-7.309-17.88-11.173-30.566-11.173" fill="#26bad4"/><path d="M495.638,217.5l-28.332-.006c-12.852,0-19.1-7.375-19.1-22.542V119.468H412.485v79.615c0,28.711,15.464,45.181,42.421,45.181h76.453v-124.8H495.638Z" fill="#26bad4"/><path d="M358.034,119.467H281.313v124.8h35.725V146.231l28.6.006c12.856,0,19.1,7.373,19.1,22.546v75.482h35.723V164.65c0-28.715-15.462-45.183-42.425-45.183" fill="#26bad4"/><path d="M825.548,157.99a20.242,20.242,0,0,1-7.708-1.439,18.072,18.072,0,0,1-10.123-10.124,21.347,21.347,0,0,1,0-15.415,18.08,18.08,0,0,1,10.123-10.124,21.391,21.391,0,0,1,15.416,0,18.09,18.09,0,0,1,10.122,10.124,21.375,21.375,0,0,1,0,15.415,18.082,18.082,0,0,1-10.122,10.124,20.257,20.257,0,0,1-7.708,1.439m-.055-2.226a17.285,17.285,0,0,0,8.766-2.2,15.805,15.805,0,0,0,6-6.053,18.837,18.837,0,0,0,0-17.559,15.864,15.864,0,0,0-6-6.025,18.462,18.462,0,0,0-17.477,0,15.85,15.85,0,0,0-6,6.025,18.837,18.837,0,0,0,0,17.559,15.792,15.792,0,0,0,6,6.053,17.176,17.176,0,0,0,8.711,2.2m-7.326-5.808V127.593h9.552a5.991,5.991,0,0,1,6.73,6.621,7.733,7.733,0,0,1-1,3.99,5.718,5.718,0,0,1-2.96,2.47l4.723,9.282h-3.093l-4.4-8.793h-6.732v8.793Zm2.82-11.29h6.785a3.445,3.445,0,0,0,2.714-1.167,4.8,4.8,0,0,0,1.032-3.285,4.387,4.387,0,0,0-.976-3.039,3.538,3.538,0,0,0-2.77-1.085h-6.785Z" fill="#26bad4"/></g></g></svg>